<?xml version="1.0" encoding="UTF-8"?>
<!DOCTYPE svg PUBLIC "-//W3C//DTD SVG 1.1//EN" "http://www.w3.org/Graphics/SVG/1.1/DTD/svg11.dtd">
<!-- Creator: CorelDRAW 2018 (64-Bit) -->
<svg xmlns="http://www.w3.org/2000/svg" xml:space="preserve" width="16.5354in" height="11.6929in" version="1.1" style="shape-rendering:geometricPrecision; text-rendering:geometricPrecision; image-rendering:optimizeQuality; fill-rule:evenodd; clip-rule:evenodd"
viewBox="0 0 16535.43 11692.91"
 xmlns:xlink="http://www.w3.org/1999/xlink">
 <defs>
  <style type="text/css">
   <![CDATA[
    .fil0 {fill:#020202}
   ]]>
  </style>
 </defs>
 <g id="Layer_x0020_1">
  <metadata id="CorelCorpID_0Corel-Layer"/>
  <path class="fil0" d="M5819.15 3927.21c-35.84,-1.43 -85.16,-8.28 -107.72,9.65 126.96,65.2 485.56,435.81 952.07,663.25 257.07,125.33 445.62,143.01 289.01,242.67 -186.69,118.79 -876.15,442.31 -1077.23,540.37 -213.68,104.2 -411.39,271.04 -625.38,206.76 -164.58,-49.44 -437.67,-218.81 -559.01,-300.81 -104.18,-70.4 -742.26,-469.92 -679.73,-601.33 55.46,-116.54 422.38,-260.19 538.31,-319.24l717.88 -361.17c45.6,-22.94 92.47,-53.91 138.68,-70.59 -31.91,-24.48 -129.47,-13.31 -175.16,-6.66l-304.52 160.97c-181.04,91.09 -801.49,388.85 -916,489.71 -89.91,79.19 -128.17,146.63 -195.75,273 -53.55,100.12 -104.05,212.98 -151.71,316.72 -96.04,209.06 -198.4,418.04 -301.43,635.37 -24.53,51.75 -49.02,102.11 -74.04,154.76 -25.36,53.38 -71.87,112.26 -39.22,186.69 32.59,74.28 178.52,156.87 255.39,212.91 335.33,244.44 769.08,518 1123.12,752.04 110.56,73.09 484.93,329.31 574.43,370.87 213.96,99.35 480.56,-112.72 648.46,-224.83 191.04,-127.57 382.11,-240.74 572.19,-365.31l849.93 -556.63c263.72,-170.24 191.15,-216.49 84.25,-663.12 -59.98,-250.64 -114.87,-502.64 -182.89,-752.67 -40.3,-148.1 -74.62,-210.84 -197.6,-270.07 -230.06,-110.81 -418.89,-187.2 -616.6,-321.01l-407.59 -300.05c-39.8,-31.31 -90.11,-77.2 -132.15,-102.24zm-591.94 3485.65c99.75,37.49 135.62,24.03 229.11,-8.96 27.17,-569.44 -14.94,-1153.83 -22.02,-1720.19l-98.36 2.56c-16,130.46 -17.35,304.9 -22.08,441.83 -4.8,138.73 -15.67,286.42 -25.86,429.56l-60.8 855.21zm284.76 -1753.58c8.56,321.56 37.52,1039.31 26.63,1317.03l-3.93 376.23 364.92 -220.43c123.02,-78.72 233.11,-142.57 353.65,-222.15l865.3 -567.35c317.02,-212.96 283.28,-144.76 183.17,-560.06 -30.96,-128.44 -193.92,-867.37 -230.36,-916.39 -126.38,93.47 -1472.34,725.3 -1559.37,793.13zm-360.74 1700.54c3.06,-130.73 20.28,-281.57 31.81,-414.38 15.58,-179.34 79.91,-1149.44 70.79,-1273.31 -144.8,-43.35 -258.24,-108.46 -373.15,-175.82 -240.51,-141 -435.82,-275.6 -656.03,-439.87l-222.25 -184.49c-27.07,-24.61 -38.56,-57.54 -75.73,-75.73l-501.44 1056.53c-158.24,338.69 -180.46,226.31 217.91,509.73 21.4,15.22 1448.79,979.43 1508.09,997.34zm79.65 -3429.71c45.69,-6.65 143.25,-17.82 175.16,6.66 69.26,-28.38 238.89,-22.6 305.4,0.1 22.56,-17.94 71.88,-11.08 107.72,-9.65 -54.79,-67.74 -182.84,-127.49 -295.7,-113.95 -87.63,10.51 -235.57,66.29 -292.58,116.85zm1514.33 873.13c-74.7,28.61 -229.66,68.58 -229.93,113.76 -0.41,65.64 77.99,26.62 110.66,14.11 77.11,-29.52 386.57,-131.41 180.45,-199.18 -26.39,-8.68 -110.73,-35.49 -132.21,-16.47 -22.79,20.19 -16.83,49 3.91,63.03 9.46,6.4 21.26,6.2 34.41,10.11l32.72 14.63zm-2571.37 -80.91c36.38,-55.96 184.86,-79.72 220.97,-120.1 30.12,-33.67 -3.74,-76.72 -61.54,-53.52 -129.02,51.8 -305,116.59 -217.52,236.52 11.61,15.91 63.72,78.59 96.43,49.83 21.22,-18.65 18.46,-37.29 3.02,-59.33 -21.55,-30.77 -27.81,-5.87 -41.36,-53.4zm1275.8 442.27l7.24 -377.64 565.85 44.83c49.71,3.92 90.68,-19.21 91.87,-51.54 2.2,-31.56 -37.23,-60.75 -86.94,-64.67l-566.96 -44.25 273.94 -145.83c36.45,-19.41 40.05,-55.66 6.76,-81.52 -34.3,-26.65 -90.35,-31.15 -126.8,-11.75l-706.94 376.33c-36.45,19.4 -38.94,55.07 -4.65,81.72 33.29,25.87 88.24,30.96 124.69,11.56l244.12 -129.95c3.13,0.98 5.24,1.18 7.35,1.37l-8.53 380.97c1.06,15.29 9.66,29.2 23.78,40.17 17.15,13.33 39.92,22.34 67.49,23.52 48.7,3.13 88.66,-20.78 87.74,-53.31z"/>
 </g>
</svg>
